<mxfile host="app.diagrams.net" modified="2024-06-26T17:14:32.367Z" agent="Mozilla/5.0 (Windows NT 10.0; Win64; x64; rv:127.0) Gecko/20100101 Firefox/127.0" etag="hw7fLBMnDxv0N6CAZlqd" version="24.6.3" type="github">
  <diagram name="Page-1" id="J1TTIQ-Wi5ldypDLBhh3">
    <mxGraphModel dx="1434" dy="781" grid="1" gridSize="10" guides="1" tooltips="1" connect="1" arrows="1" fold="1" page="1" pageScale="1" pageWidth="850" pageHeight="1100" math="0" shadow="0">
      <root>
        <mxCell id="0" />
        <mxCell id="1" parent="0" />
        <mxCell id="u2PZHkAVqDGhbzs_OQ3e-1" value="C" style="rounded=0;whiteSpace=wrap;html=1;sketch=1;hachureGap=4;jiggle=2;curveFitting=1;strokeColor=#BAC8D3;fontFamily=Architects Daughter;fontSource=https%3A%2F%2Ffonts.googleapis.com%2Fcss%3Ffamily%3DArchitects%2BDaughter;fontColor=#EEEEEE;fillColor=#09555B;" vertex="1" parent="1">
          <mxGeometry x="30" y="30" width="120" height="60" as="geometry" />
        </mxCell>
        <mxCell id="u2PZHkAVqDGhbzs_OQ3e-8" value="&lt;h1&gt;&lt;font color=&quot;#000099&quot;&gt;&lt;b&gt;&lt;font face=&quot;Lucida Console&quot;&gt;kubectl&lt;/font&gt;&lt;/b&gt;&lt;/font&gt;&lt;/h1&gt;" style="text;html=1;align=center;verticalAlign=middle;whiteSpace=wrap;rounded=0;fontFamily=Architects Daughter;fontSource=https%3A%2F%2Ffonts.googleapis.com%2Fcss%3Ffamily%3DArchitects%2BDaughter;fontColor=#EEEEEE;" vertex="1" parent="1">
          <mxGeometry x="60" y="45" width="60" height="30" as="geometry" />
        </mxCell>
        <mxCell id="u2PZHkAVqDGhbzs_OQ3e-11" value="C" style="rounded=0;whiteSpace=wrap;html=1;sketch=1;hachureGap=4;jiggle=2;curveFitting=1;strokeColor=#BAC8D3;fontFamily=Architects Daughter;fontSource=https%3A%2F%2Ffonts.googleapis.com%2Fcss%3Ffamily%3DArchitects%2BDaughter;fontColor=#EEEEEE;fillColor=#09555B;" vertex="1" parent="1">
          <mxGeometry x="200" y="30" width="120" height="60" as="geometry" />
        </mxCell>
        <mxCell id="u2PZHkAVqDGhbzs_OQ3e-12" value="&lt;h1 style=&quot;font-size: 19px;&quot;&gt;&lt;font style=&quot;font-size: 19px;&quot; color=&quot;#000099&quot; face=&quot;Lucida Console&quot;&gt;api-server&lt;/font&gt;&lt;/h1&gt;" style="text;html=1;align=center;verticalAlign=middle;whiteSpace=wrap;rounded=0;fontFamily=Architects Daughter;fontSource=https%3A%2F%2Ffonts.googleapis.com%2Fcss%3Ffamily%3DArchitects%2BDaughter;fontColor=#EEEEEE;" vertex="1" parent="1">
          <mxGeometry x="170" y="45" width="180" height="30" as="geometry" />
        </mxCell>
        <mxCell id="u2PZHkAVqDGhbzs_OQ3e-13" value="C" style="rounded=0;whiteSpace=wrap;html=1;sketch=1;hachureGap=4;jiggle=2;curveFitting=1;strokeColor=#BAC8D3;fontFamily=Architects Daughter;fontSource=https%3A%2F%2Ffonts.googleapis.com%2Fcss%3Ffamily%3DArchitects%2BDaughter;fontColor=#EEEEEE;fillColor=#09555B;" vertex="1" parent="1">
          <mxGeometry x="560" y="30" width="120" height="60" as="geometry" />
        </mxCell>
        <mxCell id="u2PZHkAVqDGhbzs_OQ3e-14" value="&lt;h1&gt;&lt;font color=&quot;#000099&quot; face=&quot;Lucida Console&quot;&gt;etcd&lt;/font&gt;&lt;/h1&gt;" style="text;html=1;align=center;verticalAlign=middle;whiteSpace=wrap;rounded=0;fontFamily=Architects Daughter;fontSource=https%3A%2F%2Ffonts.googleapis.com%2Fcss%3Ffamily%3DArchitects%2BDaughter;fontColor=#EEEEEE;" vertex="1" parent="1">
          <mxGeometry x="590" y="45" width="60" height="30" as="geometry" />
        </mxCell>
        <mxCell id="u2PZHkAVqDGhbzs_OQ3e-15" value="C" style="rounded=0;whiteSpace=wrap;html=1;sketch=1;hachureGap=4;jiggle=2;curveFitting=1;strokeColor=#BAC8D3;fontFamily=Architects Daughter;fontSource=https%3A%2F%2Ffonts.googleapis.com%2Fcss%3Ffamily%3DArchitects%2BDaughter;fontColor=#EEEEEE;fillColor=#09555B;" vertex="1" parent="1">
          <mxGeometry x="380" y="30" width="120" height="60" as="geometry" />
        </mxCell>
        <mxCell id="u2PZHkAVqDGhbzs_OQ3e-16" value="&lt;h1 style=&quot;font-size: 20px;&quot;&gt;&lt;font style=&quot;font-size: 20px;&quot; color=&quot;#000099&quot; face=&quot;Lucida Console&quot;&gt;Controller Manager&lt;br&gt;&lt;/font&gt;&lt;/h1&gt;" style="text;html=1;align=center;verticalAlign=middle;whiteSpace=wrap;rounded=0;fontFamily=Architects Daughter;fontSource=https%3A%2F%2Ffonts.googleapis.com%2Fcss%3Ffamily%3DArchitects%2BDaughter;fontColor=#EEEEEE;" vertex="1" parent="1">
          <mxGeometry x="410" y="45" width="60" height="30" as="geometry" />
        </mxCell>
        <mxCell id="u2PZHkAVqDGhbzs_OQ3e-17" value="C" style="rounded=0;whiteSpace=wrap;html=1;sketch=1;hachureGap=4;jiggle=2;curveFitting=1;strokeColor=#BAC8D3;fontFamily=Architects Daughter;fontSource=https%3A%2F%2Ffonts.googleapis.com%2Fcss%3Ffamily%3DArchitects%2BDaughter;fontColor=#EEEEEE;fillColor=#09555B;" vertex="1" parent="1">
          <mxGeometry x="730" y="30" width="120" height="60" as="geometry" />
        </mxCell>
        <mxCell id="u2PZHkAVqDGhbzs_OQ3e-18" value="&lt;h1 style=&quot;font-size: 22px;&quot;&gt;&lt;font style=&quot;font-size: 22px;&quot; color=&quot;#000099&quot; face=&quot;Lucida Console&quot;&gt;Scheduler&lt;/font&gt;&lt;/h1&gt;" style="text;html=1;align=center;verticalAlign=middle;whiteSpace=wrap;rounded=0;fontFamily=Architects Daughter;fontSource=https%3A%2F%2Ffonts.googleapis.com%2Fcss%3Ffamily%3DArchitects%2BDaughter;fontColor=#EEEEEE;" vertex="1" parent="1">
          <mxGeometry x="760" y="45" width="60" height="30" as="geometry" />
        </mxCell>
        <mxCell id="u2PZHkAVqDGhbzs_OQ3e-19" value="C" style="rounded=0;whiteSpace=wrap;html=1;sketch=1;hachureGap=4;jiggle=2;curveFitting=1;strokeColor=#BAC8D3;fontFamily=Architects Daughter;fontSource=https%3A%2F%2Ffonts.googleapis.com%2Fcss%3Ffamily%3DArchitects%2BDaughter;fontColor=#EEEEEE;fillColor=#09555B;" vertex="1" parent="1">
          <mxGeometry x="910" y="30" width="120" height="60" as="geometry" />
        </mxCell>
        <mxCell id="u2PZHkAVqDGhbzs_OQ3e-20" value="&lt;h1&gt;&lt;font color=&quot;#000099&quot; face=&quot;Lucida Console&quot;&gt;kubelet&lt;/font&gt;&lt;/h1&gt;" style="text;html=1;align=center;verticalAlign=middle;whiteSpace=wrap;rounded=0;fontFamily=Architects Daughter;fontSource=https%3A%2F%2Ffonts.googleapis.com%2Fcss%3Ffamily%3DArchitects%2BDaughter;fontColor=#EEEEEE;" vertex="1" parent="1">
          <mxGeometry x="940" y="45" width="60" height="30" as="geometry" />
        </mxCell>
        <mxCell id="u2PZHkAVqDGhbzs_OQ3e-21" value="C" style="rounded=0;whiteSpace=wrap;html=1;sketch=1;hachureGap=4;jiggle=2;curveFitting=1;strokeColor=#BAC8D3;fontFamily=Architects Daughter;fontSource=https%3A%2F%2Ffonts.googleapis.com%2Fcss%3Ffamily%3DArchitects%2BDaughter;fontColor=#EEEEEE;fillColor=#09555B;" vertex="1" parent="1">
          <mxGeometry x="1090" y="30" width="120" height="60" as="geometry" />
        </mxCell>
        <mxCell id="u2PZHkAVqDGhbzs_OQ3e-22" value="&lt;h1&gt;&lt;font color=&quot;#000099&quot; face=&quot;Lucida Console&quot;&gt;docker&lt;/font&gt;&lt;/h1&gt;" style="text;html=1;align=center;verticalAlign=middle;whiteSpace=wrap;rounded=0;fontFamily=Architects Daughter;fontSource=https%3A%2F%2Ffonts.googleapis.com%2Fcss%3Ffamily%3DArchitects%2BDaughter;fontColor=#EEEEEE;" vertex="1" parent="1">
          <mxGeometry x="1120" y="45" width="60" height="30" as="geometry" />
        </mxCell>
        <mxCell id="u2PZHkAVqDGhbzs_OQ3e-23" value="" style="endArrow=none;html=1;rounded=0;sketch=1;hachureGap=4;jiggle=2;curveFitting=1;strokeColor=#0B4D6A;fontFamily=Architects Daughter;fontSource=https%3A%2F%2Ffonts.googleapis.com%2Fcss%3Ffamily%3DArchitects%2BDaughter;entryX=0.442;entryY=0.983;entryDx=0;entryDy=0;entryPerimeter=0;" edge="1" parent="1">
          <mxGeometry width="50" height="50" relative="1" as="geometry">
            <mxPoint x="88" y="640" as="sourcePoint" />
            <mxPoint x="91.51999999999997" y="90.00000000000001" as="targetPoint" />
          </mxGeometry>
        </mxCell>
        <mxCell id="u2PZHkAVqDGhbzs_OQ3e-24" value="" style="endArrow=none;html=1;rounded=0;sketch=1;hachureGap=4;jiggle=2;curveFitting=1;strokeColor=#0B4D6A;fontFamily=Architects Daughter;fontSource=https%3A%2F%2Ffonts.googleapis.com%2Fcss%3Ffamily%3DArchitects%2BDaughter;entryX=0.442;entryY=0.983;entryDx=0;entryDy=0;entryPerimeter=0;" edge="1" parent="1">
          <mxGeometry width="50" height="50" relative="1" as="geometry">
            <mxPoint x="437" y="640" as="sourcePoint" />
            <mxPoint x="439.5" y="90" as="targetPoint" />
          </mxGeometry>
        </mxCell>
        <mxCell id="u2PZHkAVqDGhbzs_OQ3e-25" value="" style="endArrow=none;html=1;rounded=0;sketch=1;hachureGap=4;jiggle=2;curveFitting=1;strokeColor=#0B4D6A;fontFamily=Architects Daughter;fontSource=https%3A%2F%2Ffonts.googleapis.com%2Fcss%3Ffamily%3DArchitects%2BDaughter;entryX=0.442;entryY=0.983;entryDx=0;entryDy=0;entryPerimeter=0;" edge="1" parent="1">
          <mxGeometry width="50" height="50" relative="1" as="geometry">
            <mxPoint x="609" y="640" as="sourcePoint" />
            <mxPoint x="611.5" y="90" as="targetPoint" />
          </mxGeometry>
        </mxCell>
        <mxCell id="u2PZHkAVqDGhbzs_OQ3e-26" value="" style="endArrow=none;html=1;rounded=0;sketch=1;hachureGap=4;jiggle=2;curveFitting=1;strokeColor=#0B4D6A;fontFamily=Architects Daughter;fontSource=https%3A%2F%2Ffonts.googleapis.com%2Fcss%3Ffamily%3DArchitects%2BDaughter;entryX=0.442;entryY=0.983;entryDx=0;entryDy=0;entryPerimeter=0;" edge="1" parent="1">
          <mxGeometry width="50" height="50" relative="1" as="geometry">
            <mxPoint x="792" y="640" as="sourcePoint" />
            <mxPoint x="791.5" y="90" as="targetPoint" />
          </mxGeometry>
        </mxCell>
        <mxCell id="u2PZHkAVqDGhbzs_OQ3e-27" value="" style="endArrow=none;html=1;rounded=0;sketch=1;hachureGap=4;jiggle=2;curveFitting=1;strokeColor=#0B4D6A;fontFamily=Architects Daughter;fontSource=https%3A%2F%2Ffonts.googleapis.com%2Fcss%3Ffamily%3DArchitects%2BDaughter;entryX=0.442;entryY=0.983;entryDx=0;entryDy=0;entryPerimeter=0;" edge="1" parent="1">
          <mxGeometry width="50" height="50" relative="1" as="geometry">
            <mxPoint x="972" y="640" as="sourcePoint" />
            <mxPoint x="971.5" y="90" as="targetPoint" />
          </mxGeometry>
        </mxCell>
        <mxCell id="u2PZHkAVqDGhbzs_OQ3e-28" value="" style="endArrow=none;html=1;rounded=0;sketch=1;hachureGap=4;jiggle=2;curveFitting=1;strokeColor=#0B4D6A;fontFamily=Architects Daughter;fontSource=https%3A%2F%2Ffonts.googleapis.com%2Fcss%3Ffamily%3DArchitects%2BDaughter;entryX=0.442;entryY=0.983;entryDx=0;entryDy=0;entryPerimeter=0;" edge="1" parent="1">
          <mxGeometry width="50" height="50" relative="1" as="geometry">
            <mxPoint x="1160" y="630" as="sourcePoint" />
            <mxPoint x="1163" y="90" as="targetPoint" />
          </mxGeometry>
        </mxCell>
        <mxCell id="u2PZHkAVqDGhbzs_OQ3e-29" value="" style="endArrow=none;html=1;rounded=0;sketch=1;hachureGap=4;jiggle=2;curveFitting=1;strokeColor=#0B4D6A;fontFamily=Architects Daughter;fontSource=https%3A%2F%2Ffonts.googleapis.com%2Fcss%3Ffamily%3DArchitects%2BDaughter;entryX=0.442;entryY=0.983;entryDx=0;entryDy=0;entryPerimeter=0;" edge="1" parent="1">
          <mxGeometry width="50" height="50" relative="1" as="geometry">
            <mxPoint x="262" y="640" as="sourcePoint" />
            <mxPoint x="261.5" y="90" as="targetPoint" />
          </mxGeometry>
        </mxCell>
        <mxCell id="u2PZHkAVqDGhbzs_OQ3e-31" value="" style="endArrow=classic;html=1;rounded=0;sketch=1;hachureGap=4;jiggle=2;curveFitting=1;strokeColor=#0B4D6A;fontFamily=Architects Daughter;fontSource=https%3A%2F%2Ffonts.googleapis.com%2Fcss%3Ffamily%3DArchitects%2BDaughter;" edge="1" parent="1">
          <mxGeometry width="50" height="50" relative="1" as="geometry">
            <mxPoint x="90" y="160" as="sourcePoint" />
            <mxPoint x="260" y="160" as="targetPoint" />
          </mxGeometry>
        </mxCell>
        <mxCell id="u2PZHkAVqDGhbzs_OQ3e-32" value="" style="endArrow=classic;html=1;rounded=0;sketch=1;hachureGap=4;jiggle=2;curveFitting=1;strokeColor=#0B4D6A;fontFamily=Architects Daughter;fontSource=https%3A%2F%2Ffonts.googleapis.com%2Fcss%3Ffamily%3DArchitects%2BDaughter;" edge="1" parent="1">
          <mxGeometry width="50" height="50" relative="1" as="geometry">
            <mxPoint x="270" y="200" as="sourcePoint" />
            <mxPoint x="440" y="200" as="targetPoint" />
          </mxGeometry>
        </mxCell>
        <mxCell id="u2PZHkAVqDGhbzs_OQ3e-33" value="" style="endArrow=classic;html=1;rounded=0;sketch=1;hachureGap=4;jiggle=2;curveFitting=1;strokeColor=#0B4D6A;fontFamily=Architects Daughter;fontSource=https%3A%2F%2Ffonts.googleapis.com%2Fcss%3Ffamily%3DArchitects%2BDaughter;" edge="1" parent="1">
          <mxGeometry width="50" height="50" relative="1" as="geometry">
            <mxPoint x="435" y="240" as="sourcePoint" />
            <mxPoint x="270" y="240" as="targetPoint" />
          </mxGeometry>
        </mxCell>
        <mxCell id="u2PZHkAVqDGhbzs_OQ3e-35" value="" style="endArrow=classic;html=1;rounded=0;sketch=1;hachureGap=4;jiggle=2;curveFitting=1;strokeColor=#0B4D6A;fontFamily=Architects Daughter;fontSource=https%3A%2F%2Ffonts.googleapis.com%2Fcss%3Ffamily%3DArchitects%2BDaughter;" edge="1" parent="1">
          <mxGeometry width="50" height="50" relative="1" as="geometry">
            <mxPoint x="270" y="280" as="sourcePoint" />
            <mxPoint x="600" y="280" as="targetPoint" />
          </mxGeometry>
        </mxCell>
        <mxCell id="u2PZHkAVqDGhbzs_OQ3e-36" value="&lt;font style=&quot;font-size: 14px;&quot; color=&quot;#660033&quot;&gt;1. Create POD&lt;br&gt;&lt;/font&gt;" style="text;html=1;align=left;verticalAlign=middle;whiteSpace=wrap;rounded=0;fontFamily=Lucida Console;fontColor=#EEEEEE;labelBackgroundColor=#F8CECC;" vertex="1" parent="1">
          <mxGeometry x="110" y="130" width="160" height="30" as="geometry" />
        </mxCell>
        <mxCell id="u2PZHkAVqDGhbzs_OQ3e-37" value="&lt;font color=&quot;#660033&quot;&gt;2. Notify about request&lt;br&gt;&lt;/font&gt;" style="text;html=1;align=left;verticalAlign=middle;whiteSpace=wrap;rounded=0;fontFamily=Lucida Console;fontColor=#EEEEEE;labelBackgroundColor=#F8CECC;" vertex="1" parent="1">
          <mxGeometry x="270" y="170" width="180" height="20" as="geometry" />
        </mxCell>
        <mxCell id="u2PZHkAVqDGhbzs_OQ3e-38" value="&lt;font color=&quot;#660033&quot;&gt;3. Create POD&lt;br&gt;&lt;/font&gt;" style="text;whiteSpace=wrap;html=1;fontFamily=Lucida Console;fontColor=#EEEEEE;labelBackgroundColor=#F8CECC;" vertex="1" parent="1">
          <mxGeometry x="270" y="210" width="190" height="20" as="geometry" />
        </mxCell>
        <mxCell id="u2PZHkAVqDGhbzs_OQ3e-39" value="&lt;font color=&quot;#660033&quot;&gt;4. Write the details of new POD creation&lt;br&gt;&lt;/font&gt;" style="text;html=1;align=left;verticalAlign=middle;whiteSpace=wrap;rounded=0;fontFamily=Lucida Console;fontColor=#EEEEEE;labelBackgroundColor=#F8CECC;" vertex="1" parent="1">
          <mxGeometry x="270" y="250" width="310" height="30" as="geometry" />
        </mxCell>
        <mxCell id="u2PZHkAVqDGhbzs_OQ3e-40" value="" style="endArrow=classic;html=1;rounded=0;sketch=1;hachureGap=4;jiggle=2;curveFitting=1;strokeColor=#0B4D6A;fontFamily=Architects Daughter;fontSource=https%3A%2F%2Ffonts.googleapis.com%2Fcss%3Ffamily%3DArchitects%2BDaughter;" edge="1" parent="1">
          <mxGeometry width="50" height="50" relative="1" as="geometry">
            <mxPoint x="600" y="320" as="sourcePoint" />
            <mxPoint x="270" y="320" as="targetPoint" />
          </mxGeometry>
        </mxCell>
        <mxCell id="u2PZHkAVqDGhbzs_OQ3e-41" value="&lt;font color=&quot;#660033&quot;&gt;5. It&#39;s done&lt;br&gt;&lt;/font&gt;" style="text;html=1;align=left;verticalAlign=middle;whiteSpace=wrap;rounded=0;fontFamily=Lucida Console;fontColor=#EEEEEE;labelBackgroundColor=#F8CECC;" vertex="1" parent="1">
          <mxGeometry x="270" y="290" width="120" height="30" as="geometry" />
        </mxCell>
        <mxCell id="u2PZHkAVqDGhbzs_OQ3e-42" value="&lt;font color=&quot;#660033&quot;&gt;7. I found a waiting POD&lt;br&gt;&lt;/font&gt;" style="text;whiteSpace=wrap;html=1;fontFamily=Lucida Console;fontColor=#EEEEEE;labelBackgroundColor=#F8CECC;" vertex="1" parent="1">
          <mxGeometry x="610" y="369" width="190" height="30" as="geometry" />
        </mxCell>
        <mxCell id="u2PZHkAVqDGhbzs_OQ3e-43" value="" style="endArrow=classic;html=1;rounded=0;sketch=1;hachureGap=4;jiggle=2;curveFitting=1;strokeColor=#0B4D6A;fontFamily=Architects Daughter;fontSource=https%3A%2F%2Ffonts.googleapis.com%2Fcss%3Ffamily%3DArchitects%2BDaughter;" edge="1" parent="1">
          <mxGeometry width="50" height="50" relative="1" as="geometry">
            <mxPoint x="780" y="399" as="sourcePoint" />
            <mxPoint x="619.03" y="399" as="targetPoint" />
          </mxGeometry>
        </mxCell>
        <mxCell id="u2PZHkAVqDGhbzs_OQ3e-44" value="" style="endArrow=classic;html=1;rounded=0;sketch=1;hachureGap=4;jiggle=2;curveFitting=1;strokeColor=#0B4D6A;fontFamily=Architects Daughter;fontSource=https%3A%2F%2Ffonts.googleapis.com%2Fcss%3Ffamily%3DArchitects%2BDaughter;" edge="1" parent="1">
          <mxGeometry width="50" height="50" relative="1" as="geometry">
            <mxPoint x="780" y="439" as="sourcePoint" />
            <mxPoint x="270" y="439" as="targetPoint" />
          </mxGeometry>
        </mxCell>
        <mxCell id="u2PZHkAVqDGhbzs_OQ3e-46" value="&lt;font color=&quot;#660033&quot;&gt;8. There&#39;s a Node can handle the requests&lt;br&gt;&lt;/font&gt;" style="text;whiteSpace=wrap;html=1;fontFamily=Lucida Console;fontColor=#EEEEEE;labelBackgroundColor=#F8CECC;" vertex="1" parent="1">
          <mxGeometry x="270" y="409" width="310" height="30" as="geometry" />
        </mxCell>
        <mxCell id="u2PZHkAVqDGhbzs_OQ3e-47" value="" style="endArrow=classic;html=1;rounded=0;sketch=1;hachureGap=4;jiggle=2;curveFitting=1;strokeColor=#0B4D6A;fontFamily=Architects Daughter;fontSource=https%3A%2F%2Ffonts.googleapis.com%2Fcss%3Ffamily%3DArchitects%2BDaughter;" edge="1" parent="1">
          <mxGeometry width="50" height="50" relative="1" as="geometry">
            <mxPoint x="270" y="479" as="sourcePoint" />
            <mxPoint x="950" y="479" as="targetPoint" />
          </mxGeometry>
        </mxCell>
        <mxCell id="u2PZHkAVqDGhbzs_OQ3e-48" value="&lt;font color=&quot;#660033&quot;&gt;9. Please deploy our POD with the details I sent&lt;br&gt;&lt;/font&gt;" style="text;whiteSpace=wrap;html=1;fontFamily=Lucida Console;fontColor=#EEEEEE;labelBackgroundColor=#F8CECC;" vertex="1" parent="1">
          <mxGeometry x="270" y="449" width="400" height="30" as="geometry" />
        </mxCell>
        <mxCell id="u2PZHkAVqDGhbzs_OQ3e-49" value="" style="endArrow=classic;html=1;rounded=0;sketch=1;hachureGap=4;jiggle=2;curveFitting=1;strokeColor=#0B4D6A;fontFamily=Architects Daughter;fontSource=https%3A%2F%2Ffonts.googleapis.com%2Fcss%3Ffamily%3DArchitects%2BDaughter;" edge="1" parent="1">
          <mxGeometry width="50" height="50" relative="1" as="geometry">
            <mxPoint x="270" y="360" as="sourcePoint" />
            <mxPoint x="780" y="360" as="targetPoint" />
          </mxGeometry>
        </mxCell>
        <mxCell id="u2PZHkAVqDGhbzs_OQ3e-50" value="&lt;font color=&quot;#660033&quot;&gt;6. Watch new POD is waiting&lt;br&gt;&lt;/font&gt;" style="text;whiteSpace=wrap;html=1;fontFamily=Lucida Console;fontColor=#EEEEEE;labelBackgroundColor=#F8CECC;" vertex="1" parent="1">
          <mxGeometry x="270" y="330" width="210" height="30" as="geometry" />
        </mxCell>
        <mxCell id="u2PZHkAVqDGhbzs_OQ3e-51" value="" style="endArrow=classic;html=1;rounded=0;sketch=1;hachureGap=4;jiggle=2;curveFitting=1;strokeColor=#0B4D6A;fontFamily=Architects Daughter;fontSource=https%3A%2F%2Ffonts.googleapis.com%2Fcss%3Ffamily%3DArchitects%2BDaughter;" edge="1" parent="1">
          <mxGeometry width="50" height="50" relative="1" as="geometry">
            <mxPoint x="980" y="520" as="sourcePoint" />
            <mxPoint x="1150" y="520" as="targetPoint" />
          </mxGeometry>
        </mxCell>
        <mxCell id="u2PZHkAVqDGhbzs_OQ3e-52" value="&lt;font color=&quot;#660033&quot;&gt;10. Run POD with the image I will mention&lt;br&gt;&lt;/font&gt;" style="text;whiteSpace=wrap;html=1;fontFamily=Lucida Console;fontColor=#EEEEEE;labelBackgroundColor=#F8CECC;" vertex="1" parent="1">
          <mxGeometry x="975" y="482" width="170" height="20" as="geometry" />
        </mxCell>
        <mxCell id="u2PZHkAVqDGhbzs_OQ3e-53" value="" style="endArrow=classic;html=1;rounded=0;sketch=1;hachureGap=4;jiggle=2;curveFitting=1;strokeColor=#0B4D6A;fontFamily=Architects Daughter;fontSource=https%3A%2F%2Ffonts.googleapis.com%2Fcss%3Ffamily%3DArchitects%2BDaughter;" edge="1" parent="1">
          <mxGeometry width="50" height="50" relative="1" as="geometry">
            <mxPoint x="1145" y="560" as="sourcePoint" />
            <mxPoint x="984.03" y="560" as="targetPoint" />
          </mxGeometry>
        </mxCell>
        <mxCell id="u2PZHkAVqDGhbzs_OQ3e-54" value="&lt;font color=&quot;#660033&quot;&gt;11. Run what I built&lt;br&gt;&lt;/font&gt;" style="text;whiteSpace=wrap;html=1;fontFamily=Lucida Console;fontColor=#EEEEEE;labelBackgroundColor=#F8CECC;" vertex="1" parent="1">
          <mxGeometry x="975" y="520" width="190" height="30" as="geometry" />
        </mxCell>
        <mxCell id="u2PZHkAVqDGhbzs_OQ3e-55" value="&lt;font color=&quot;#660033&quot;&gt;12. It&#39;s all done with new POD on my Node&lt;br&gt;&lt;/font&gt;" style="text;whiteSpace=wrap;html=1;fontFamily=Lucida Console;fontColor=#EEEEEE;labelBackgroundColor=#F8CECC;" vertex="1" parent="1">
          <mxGeometry x="280" y="530" width="310" height="30" as="geometry" />
        </mxCell>
        <mxCell id="u2PZHkAVqDGhbzs_OQ3e-56" value="" style="endArrow=classic;html=1;rounded=0;sketch=1;hachureGap=4;jiggle=2;curveFitting=1;strokeColor=#0B4D6A;fontFamily=Architects Daughter;fontSource=https%3A%2F%2Ffonts.googleapis.com%2Fcss%3Ffamily%3DArchitects%2BDaughter;" edge="1" parent="1">
          <mxGeometry width="50" height="50" relative="1" as="geometry">
            <mxPoint x="960" y="565" as="sourcePoint" />
            <mxPoint x="270" y="560" as="targetPoint" />
          </mxGeometry>
        </mxCell>
        <mxCell id="u2PZHkAVqDGhbzs_OQ3e-57" value="&lt;font color=&quot;#660033&quot;&gt;12. Write the details of running POD&lt;br&gt;&lt;/font&gt;" style="text;html=1;align=left;verticalAlign=middle;whiteSpace=wrap;rounded=0;fontFamily=Lucida Console;fontColor=#EEEEEE;labelBackgroundColor=#F8CECC;" vertex="1" parent="1">
          <mxGeometry x="270" y="580" width="310" height="30" as="geometry" />
        </mxCell>
        <mxCell id="u2PZHkAVqDGhbzs_OQ3e-58" value="" style="endArrow=classic;html=1;rounded=0;sketch=1;hachureGap=4;jiggle=2;curveFitting=1;strokeColor=#0B4D6A;fontFamily=Architects Daughter;fontSource=https%3A%2F%2Ffonts.googleapis.com%2Fcss%3Ffamily%3DArchitects%2BDaughter;" edge="1" parent="1">
          <mxGeometry width="50" height="50" relative="1" as="geometry">
            <mxPoint x="270" y="610" as="sourcePoint" />
            <mxPoint x="600" y="610" as="targetPoint" />
          </mxGeometry>
        </mxCell>
        <mxCell id="u2PZHkAVqDGhbzs_OQ3e-59" value="&lt;font color=&quot;#660033&quot;&gt;13. POD Created!&lt;br&gt;&lt;/font&gt;" style="text;whiteSpace=wrap;html=1;fontFamily=Lucida Console;fontColor=#EEEEEE;labelBackgroundColor=#F8CECC;" vertex="1" parent="1">
          <mxGeometry x="90" y="610" width="190" height="20" as="geometry" />
        </mxCell>
        <mxCell id="u2PZHkAVqDGhbzs_OQ3e-60" value="" style="endArrow=classic;html=1;rounded=0;sketch=1;hachureGap=4;jiggle=2;curveFitting=1;strokeColor=#0B4D6A;fontFamily=Architects Daughter;fontSource=https%3A%2F%2Ffonts.googleapis.com%2Fcss%3Ffamily%3DArchitects%2BDaughter;" edge="1" parent="1">
          <mxGeometry width="50" height="50" relative="1" as="geometry">
            <mxPoint x="255" y="640" as="sourcePoint" />
            <mxPoint x="90" y="640" as="targetPoint" />
          </mxGeometry>
        </mxCell>
      </root>
    </mxGraphModel>
  </diagram>
</mxfile>
